<?xml version="1.0" encoding="iso-8859-1"?>
<!-- Generator: Adobe Illustrator 18.0.0, SVG Export Plug-In . SVG Version: 6.00 Build 0)  -->
<!DOCTYPE svg PUBLIC "-//W3C//DTD SVG 1.1//EN" "http://www.w3.org/Graphics/SVG/1.1/DTD/svg11.dtd">
<svg version="1.1" id="Capa_1" xmlns="http://www.w3.org/2000/svg" xmlns:xlink="http://www.w3.org/1999/xlink" x="0px" y="0px"
	 viewBox="0 0 451.297 451.297" style="enable-background:new 0 0 451.297 451.297;" xml:space="preserve">
<g>
	<g>
		<g>
			<path d="M345.383,107.999c-8.777,0-15.918-7.141-15.918-15.918c0-8.777,7.141-15.918,15.918-15.918
				c8.776,0,15.916,7.141,15.916,15.918C361.299,100.858,354.16,107.999,345.383,107.999z M345.383,86.163
				c-3.263,0-5.918,2.654-5.918,5.918c0,3.264,2.655,5.918,5.918,5.918c3.262,0,5.916-2.654,5.916-5.918
				C351.299,88.817,348.645,86.163,345.383,86.163z"/>
		</g>
		<path d="M450.77,92.882c-0.516-1.031-13.193-25.03-69.854-22.111c-3.753-2.215-14.32-7.908-27.302-10.219
			c-21.883-3.893-39.857,3.621-51.973,21.731c-21.897,32.729-31.019,55.173-33.804,62.883c-7.575,1.596-28.49,6.979-55.251,21.958
			c-30.245,16.93-73.968,49.905-110.819,110.954c-4.153,3.441-27.23,22.585-49.961,41.998
			c-52.579,44.905-52.249,47.087-51.702,50.701c0.278,1.838,1.47,3.357,3.188,4.064c0.567,0.233,1.151,0.475,2.166,0.475
			c3.487-0.001,12.057-2.842,42.468-18.564c19.772-10.223,42.039-22.505,54.555-30.086c8.397-2.1,89.714-21.838,149.166-15.086
			l4.6,14.263c1.374,4.287,3.989,7.83,7.311,10.39l8.517,27.666c-0.264,0.561-0.92,1.049-2.407,1.049
			c-17.448,0-21.793,20.772-21.793,20.772c-0.309,1.474,0.063,3.009,1.013,4.177c0.949,1.169,2.375,1.848,3.881,1.848h88.024
			c2.707,0,4.922-2.154,4.998-4.859c0.012-0.43,0.216-10.603-6.667-17.682c-4.204-4.323-9.945-6.516-17.065-6.516
			c-9.659,0-17.345-0.653-20.926-8.799l-6.891-22.432c0.516-0.75,1.004-1.524,1.427-2.347c2.618-5.085,3.099-10.884,1.354-16.329
			l-2.691-8.401c30.518-7.376,52.155-31.73,62.746-70.855c8.277-30.579,6.95-59.074,6.893-60.225
			c-0.015-0.356-1.072-35.689,26.539-50.232c29.952-15.778,56.812-23.049,57.079-23.12c1.451-0.389,2.651-1.408,3.269-2.778
			C451.472,95.801,451.442,94.226,450.77,92.882z M322.057,372.688c4.35,0,7.572,1.126,9.852,3.441
			c1.637,1.663,2.584,3.746,3.132,5.615h-76.012c1.489-5.354,3.423-6.797,10.638-6.797c8.671,0,12.249-6.587,12.538-11.014
			c0.04-0.607-0.031-1.216-0.211-1.797l-6.607-21.467c0.42,0.025,3.642,0.297,7.778-0.972c0.975-0.299,1.896-0.707,2.797-1.142
			c0,0,5.809,18.849,5.866,19.01C297.04,372.151,313.146,372.688,322.057,372.688z M368.477,128.511
			c-15.374,19.152-14.556,43.889-14.498,45.245c0.015,0.28,1.299,28.307-6.614,57.375c-9.806,36.019-28.669,57.421-56.089,63.713
			l-1.829-5.711c-0.842-2.63-3.655-4.078-6.287-3.236c-2.63,0.843-4.079,3.657-3.236,6.287l7.575,23.648
			c0.93,2.901,0.673,5.991-0.722,8.7c-1.395,2.709-3.761,4.713-6.663,5.643c-5.985,1.918-12.424-1.393-14.347-7.393l-9.975-30.932
			c-0.849-2.629-3.666-4.071-6.293-3.225c-2.629,0.848-4.072,3.665-3.225,6.293l2.025,6.279c-38.201-3.52-82.93,2.595-113.374,8.257
			c29.893-16.145,73.233-40.449,97.019-57.939c5.39-0.072,21.811-1.019,39.258-9.254c19.392-9.151,43.65-29.311,49.095-73.381
			c0.339-2.741-1.608-5.237-4.349-5.575c-2.744-0.352-5.236,1.608-5.575,4.349c-3.904,31.6-18.403,53.603-43.094,65.4
			c-18.705,8.937-36.622,8.468-36.798,8.457c-1.153-0.03-2.262,0.31-3.175,0.993c-36.433,27.259-128.145,74.578-129.067,75.053
			c-0.042,0.021-0.076,0.052-0.117,0.075c-0.064,0.035-0.133,0.061-0.195,0.1c-18.37,11.191-52.341,29.411-73.781,39.757
			c20.646-18.679,58.559-50.673,84.654-72.249c0.437-0.361,0.809-0.794,1.1-1.279c35.677-59.408,77.943-91.443,107.118-107.855
			c31.628-17.793,55.141-21.592,55.368-21.628c1.899-0.289,3.467-1.647,4.029-3.485c0.073-0.239,7.641-24.438,33.539-63.148
			c20.072-30.01,53.096-15.483,63.65-9.738C361.766,100.072,366.174,120.911,368.477,128.511z M376.754,120.214
			c-0.785-4.203-1.36-9.904-0.729-16.412c0.008-0.001,0.016,0,0.023-0.001c0.268-0.025,17.898-1.695,38.198-2.78
			C405.715,104.503,384.392,113.654,376.754,120.214z M377.983,93.582c1.222-4.192,3.031-8.546,5.632-12.92
			c27.295-1.083,42.416,4.553,50.356,9.566C411.314,90.751,386.326,92.839,377.983,93.582z"/>
	</g>
</g>
<g>
</g>
<g>
</g>
<g>
</g>
<g>
</g>
<g>
</g>
<g>
</g>
<g>
</g>
<g>
</g>
<g>
</g>
<g>
</g>
<g>
</g>
<g>
</g>
<g>
</g>
<g>
</g>
<g>
</g>
</svg>
